<?xml version="1.0" standalone="no"?>
<!DOCTYPE svg PUBLIC "-//W3C//DTD SVG 20010904//EN"
 "http://www.w3.org/TR/2001/REC-SVG-20010904/DTD/svg10.dtd">
<svg version="1.0" xmlns="http://www.w3.org/2000/svg"
 width="626.000000pt" height="626.000000pt" viewBox="0 0 626.000000 626.000000"
 preserveAspectRatio="xMidYMid meet">
<metadata>
Created by potrace 1.11, written by Peter Selinger 2001-2013
</metadata>
<g transform="translate(0.000000,626.000000) scale(0.100000,-0.100000)"
fill="#000000" stroke="none">
<path d="M0 3130 l0 -3130 3130 0 3130 0 0 3130 0 3130 -3130 0 -3130 0 0
-3130z m3473 2136 l139 -154 51 23 c29 13 81 37 117 54 73 35 90 38 90 15 0
-8 12 -59 26 -113 l27 -98 146 -17 c80 -10 147 -18 148 -19 5 -6 -121 -307
-129 -307 -6 0 -51 18 -102 41 -258 117 -517 165 -750 140 -185 -20 -422 -93
-604 -185 l-48 -24 -83 165 c-45 91 -81 166 -79 168 2 1 75 8 162 16 l159 14
30 115 c17 63 31 117 33 119 2 2 15 -6 31 -16 15 -11 66 -41 112 -68 l85 -48
24 29 c72 85 268 304 272 304 3 0 67 -69 143 -154z m155 -486 c56 -11 137 -33
180 -49 77 -29 262 -117 262 -125 0 -11 -40 -96 -45 -96 -3 0 -36 15 -73 34
-88 44 -200 82 -320 108 -133 30 -405 31 -537 4 -123 -26 -273 -79 -374 -132
-47 -25 -87 -41 -91 -37 -4 4 -14 27 -23 50 l-17 42 87 47 c164 90 323 144
493 169 125 19 326 12 458 -15z m35 -213 c161 -43 353 -135 442 -213 l40 -35
-63 40 c-118 74 -316 144 -505 177 -124 22 -337 22 -450 0 -95 -18 -260 -74
-316 -107 -30 -18 -36 -18 -49 -5 -13 13 -5 19 64 54 181 91 335 123 569 118
143 -3 186 -8 268 -29z m-51 -86 c62 -11 154 -32 203 -46 92 -26 250 -99 295
-136 21 -17 16 -16 -27 6 -29 14 -76 34 -105 46 l-53 21 66 -69 c159 -165 263
-362 303 -570 16 -85 32 -273 23 -273 -3 0 -25 42 -50 93 -81 166 -226 335
-377 437 -89 60 -230 125 -340 155 -75 21 -127 28 -241 32 -81 3 -168 2 -195
-2 l-49 -7 40 -31 c81 -64 206 -193 253 -261 63 -91 106 -166 100 -172 -3 -2
-30 11 -59 31 -97 64 -263 131 -369 149 l-35 6 -55 -117 c-85 -181 -156 -281
-295 -419 -67 -67 -131 -126 -142 -132 l-20 -11 20 40 c17 34 18 44 7 70 -16
38 -53 67 -96 75 -44 8 -113 -25 -137 -65 -23 -39 -37 -117 -30 -169 l6 -42
91 -1 c115 -1 174 -17 70 -18 -124 -2 -335 -50 -221 -51 26 0 47 -4 47 -9 0
-5 17 -11 39 -15 52 -8 174 -46 168 -52 -3 -3 -31 -1 -63 5 -53 10 -204 17
-229 11 -5 -1 4 -5 20 -9 17 -3 30 -13 30 -21 0 -9 36 -33 88 -59 48 -24 86
-46 84 -48 -2 -1 -35 8 -74 21 -39 13 -98 29 -130 36 -32 6 -67 13 -78 16 -11
3 -2 -5 19 -17 38 -21 39 -22 20 -36 -48 -38 -130 -66 -200 -71 -135 -9 -221
55 -264 196 -11 35 -20 76 -19 91 0 19 4 14 13 -19 31 -118 138 -180 228 -134
73 38 90 73 118 249 41 258 127 394 270 430 23 5 23 5 5 -6 -35 -20 -66 -53
-82 -84 l-15 -30 28 26 c47 44 91 60 185 70 50 5 98 13 108 19 57 30 70 123
32 219 -12 29 -20 56 -18 58 6 6 48 -63 64 -106 l14 -36 -8 50 c-15 92 -9 256
11 310 30 84 68 145 117 186 57 47 74 51 32 7 -44 -47 -64 -92 -69 -157 l-5
-56 25 59 c57 133 141 227 251 281 77 37 197 65 272 64 l48 0 -50 -16 c-27 -8
-54 -19 -59 -23 -5 -5 8 -4 30 2 21 7 93 12 159 12 95 0 142 -6 227 -27 59
-15 124 -33 144 -42 20 -8 39 -14 41 -12 8 9 -158 76 -227 92 -96 22 -100 23
-68 24 14 1 77 -8 140 -18z m-782 -114 c0 -11 -27 -16 -106 -20 -79 -5 -121
-13 -170 -33 -79 -31 -190 -91 -230 -122 -26 -21 -24 -21 16 2 142 84 267 124
347 114 25 -4 24 -5 -12 -12 -119 -22 -172 -63 -234 -182 -35 -68 -37 -74 -14
-53 14 13 39 44 55 69 26 40 28 42 22 15 -31 -135 -82 -196 -204 -245 -64 -26
-93 -44 -124 -79 -65 -71 -98 -104 -141 -140 -39 -32 -39 -32 -7 -16 18 9 51
32 73 52 49 44 50 35 3 -22 -44 -54 -104 -93 -214 -140 -88 -37 -140 -80 -140
-116 0 -29 53 -79 84 -79 37 0 41 -17 5 -25 -59 -13 -95 2 -147 62 -46 52 -52
55 -95 57 -26 0 -47 4 -47 7 0 3 141 125 314 270 223 187 313 269 310 280 -2
9 0 29 6 45 14 36 90 115 103 107 6 -3 7 -1 3 5 -4 7 23 33 66 65 159 118 231
146 376 147 79 0 102 -3 102 -13z m823 -440 c165 -98 264 -190 360 -335 96
-144 161 -292 211 -482 90 -338 38 -631 -141 -805 -37 -36 -70 -65 -75 -65 -4
0 15 28 43 63 28 34 68 98 89 142 56 117 70 195 69 377 -1 127 -3 144 -11 103
-5 -27 -16 -86 -24 -130 -42 -218 -205 -435 -440 -586 -22 -14 -105 -61 -185
-104 -185 -99 -288 -168 -370 -248 -140 -137 -269 -344 -320 -516 -29 -97 -39
-78 -39 75 0 306 75 498 370 944 318 480 386 663 378 1008 -4 156 2 155 56 -6
51 -156 69 -279 63 -437 -3 -71 -11 -154 -17 -183 -17 -78 -7 -73 24 10 53
141 68 223 73 398 6 181 -6 271 -54 424 -44 141 -144 326 -219 407 -13 14 -24
28 -24 32 0 10 97 -35 183 -86z m-491 -164 c127 -97 228 -251 269 -410 10 -42
19 -86 19 -97 -1 -18 -3 -16 -17 9 -21 41 -106 154 -116 155 -4 0 -3 -8 2 -18
18 -35 41 -173 41 -252 0 -45 -7 -113 -16 -153 -19 -86 -101 -262 -139 -297
l-28 -25 16 31 c9 17 23 68 33 114 19 96 14 189 -16 310 -30 120 -40 137 -33
54 7 -90 -11 -135 -20 -49 -3 32 -18 81 -33 112 -32 62 -48 78 -38 36 5 -24 1
-21 -25 19 -17 25 -38 49 -46 52 -12 4 -10 15 10 60 42 95 58 174 59 288 1 60
4 108 8 108 4 0 35 -21 70 -47z m-178 -799 c9 -34 17 -79 18 -100 1 -36 2 -36
7 11 l7 50 8 -57 c5 -34 4 -90 -3 -142 -30 -225 -113 -372 -281 -496 -66 -49
-96 -79 -47 -48 12 8 49 30 82 48 l60 32 -51 -53 c-68 -72 -88 -103 -124 -192
-37 -93 -38 -118 -3 -55 34 61 40 56 11 -8 -21 -45 -23 -64 -24 -219 -1 -415
42 -622 172 -836 20 -33 34 -62 31 -65 -11 -11 -177 19 -262 47 -362 120 -605
479 -582 859 6 85 36 232 51 247 3 3 7 0 10 -8 2 -8 16 -54 31 -102 14 -48 42
-123 62 -165 l36 -77 13 95 c39 278 125 427 457 796 155 172 227 289 268 440
13 46 27 78 30 71 4 -6 14 -40 23 -73z m-1211 -245 c47 -25 151 -30 200 -10
37 14 42 10 74 -52 34 -68 42 -162 19 -240 -9 -31 -20 -58 -24 -61 -4 -2 -6
24 -4 57 l3 62 -22 -25 c-44 -51 -72 -130 -73 -205 -1 -38 3 -85 8 -104 l8
-33 -42 23 c-59 33 -137 120 -167 186 -17 36 -28 81 -31 126 -5 74 -19 73 -24
-1 -2 -23 -5 -42 -8 -42 -3 0 -14 14 -24 31 -23 39 -32 144 -17 192 12 34 65
117 76 117 3 0 25 -10 48 -21z"/>
<path d="M3550 4382 c8 -5 51 -14 95 -21 209 -33 361 -139 479 -336 36 -60 49
-98 20 -60 -41 56 -156 161 -207 191 -78 46 -81 43 -11 -10 121 -90 214 -205
293 -362 48 -95 52 -83 11 39 -40 117 -109 251 -172 329 -84 108 -229 217
-297 224 -85 10 -225 14 -211 6z"/>
</g>
</svg>
